<svg xmlns="http://www.w3.org/2000/svg" width="900" height="600" viewBox="0 0 900 600"><defs><pattern id="grid" width="40" height="40" patternUnits="userSpaceOnUse"><path d="M40 0H0V40" fill="none" stroke="#b1d5d5" stroke-opacity=".07"/></pattern><marker id="arrow" markerWidth="8" markerHeight="8" refX="7" refY="4" orient="auto"><path d="M0 0L8 4L0 8" fill="none" stroke="#64dca5"/></marker></defs><rect width="900" height="600" fill="#0b2c2a"/><rect width="900" height="600" fill="url(#grid)"/><g font-family="Arial,sans-serif"><text x="65" y="75" fill="#adc8c5" font-size="14" letter-spacing="3">HEALTHCARE / ROBOTICS</text><circle cx="450" cy="267" r="112" fill="#19443f" stroke="#537c6f"/><rect x="384" y="190" width="132" height="153" rx="22" fill="#0d302d" stroke="#7bbaa0" stroke-width="2"/><rect x="408" y="218" width="84" height="48" rx="7" fill="#1e5946"/><path d="M437 242h26m-13-13v26" stroke="#69e3a8" stroke-width="5"/><path d="M413 310h74" stroke="#7bbaa0" stroke-width="3"/><path d="M222 267H315M585 267H679" stroke="#69e3a8" marker-end="url(#arrow)"/><circle cx="160" cy="267" r="46" fill="#163c36" stroke="#648b7b"/><path d="M136 267h13l8-16 11 34 8-18h12" fill="none" stroke="#69e3a8" stroke-width="3"/><rect x="693" y="228" width="95" height="72" rx="6" fill="#163c36" stroke="#648b7b"/><path d="M714 253h52m-52 16h32m-6 31v17m-20 0h40" stroke="#69e3a8" stroke-width="3"/><text x="95" y="365" fill="#d0e5db" font-size="15">Measurements</text><text x="381" y="428" fill="#d0e5db" font-size="15">Nurse-Bot system</text><text x="696" y="365" fill="#d0e5db" font-size="15">Monitoring</text></g></svg>