<svg xmlns="http://www.w3.org/2000/svg" width="900" height="600" viewBox="0 0 900 600"><defs><pattern id="grid" width="40" height="40" patternUnits="userSpaceOnUse"><path d="M40 0H0V40" fill="none" stroke="#b1d5d5" stroke-opacity=".07"/></pattern><marker id="arrow" markerWidth="8" markerHeight="8" refX="7" refY="4" orient="auto"><path d="M0 0L8 4L0 8" fill="none" stroke="#64dca5"/></marker></defs><rect width="900" height="600" fill="#0e253d"/><rect width="900" height="600" fill="url(#grid)"/><g font-family="Arial,sans-serif"><text x="65" y="75" fill="#aec0d1" font-size="14" letter-spacing="3">EDUCATION / RESEARCH</text><circle cx="450" cy="270" r="135" fill="none" stroke="#4b637e" stroke-dasharray="5 10"/><circle cx="450" cy="270" r="90" fill="#18334f" stroke="#6887a4"/><text x="405" y="279" fill="#79e5b0" font-size="35" letter-spacing="4">ROS</text><path d="M225 270H336M563 270H675" stroke="#64dca5"/><rect x="94" y="223" width="130" height="97" rx="6" fill="#18334f" stroke="#6887a4"/><path d="M130 258l-16 13 16 13m55-26 16 13-16 13m-35 8 17-32" fill="none" stroke="#79e5b0" stroke-width="3"/><rect x="679" y="224" width="126" height="96" rx="6" fill="#18334f" stroke="#6887a4"/><circle cx="710" cy="267" r="9" fill="#79e5b0"/><circle cx="769" cy="267" r="9" fill="#79e5b0"/><path d="M710 299h60M742 225v-25m-39 120v20m75-20v20" stroke="#6887a4" stroke-width="3"/><text x="105" y="378" fill="#d1dfeb" font-size="16">Learning</text><text x="679" y="378" fill="#d1dfeb" font-size="16">Robotics</text><text x="352" y="462" fill="#a9c3d4" font-size="14" letter-spacing="2">KWANDALABS</text></g></svg>